<svg xmlns="http://www.w3.org/2000/svg">
  <symbol viewBox="0 0 45 45" id="add_image">
    <path d="M18.25 11.75V14.5H21V16.3333H18.25V19.0833H16.4167V16.3333H13.6667V14.5H16.4167V11.75H18.25ZM18.2574 0.75C18.7597 0.75 19.1667 1.15792 19.1667 1.66025V9.91667H17.3334V2.58333H2.66671V15.4158L11.8334 6.25L14.5834 9V11.5933L11.8334 8.84325L5.25812 15.4167H11.8334V17.25H1.74271C1.50145 17.2498 1.27016 17.1537 1.09966 16.9831C0.929149 16.8124 0.833374 16.581 0.833374 16.3398V1.66025C0.835052 1.41951 0.931366 1.1891 1.10151 1.01878C1.27166 0.848466 1.50197 0.75192 1.74271 0.75H18.2574ZM6.33337 4.41667C6.8196 4.41667 7.28592 4.60982 7.62974 4.95364C7.97355 5.29745 8.16671 5.76377 8.16671 6.25C8.16671 6.73623 7.97355 7.20255 7.62974 7.54636C7.28592 7.89018 6.8196 8.08333 6.33337 8.08333C5.84714 8.08333 5.38083 7.89018 5.03701 7.54636C4.69319 7.20255 4.50004 6.73623 4.50004 6.25C4.50004 5.76377 4.69319 5.29745 5.03701 4.95364C5.38083 4.60982 5.84714 4.41667 6.33337 4.41667Z" fill="white" fill-opacity="0.58"/>
  </symbol>
  <symbol viewBox="0 0 45 45" id="show-password-active">
    <path d="M6.99981 0C3.14763 0 0 4.50054 0 4.50054C0 4.50054 3.14763 9 6.99981 9C10.852 9 14 4.50054 14 4.50054C14 4.50054 10.852 0 6.99981 0ZM7 7.32482C5.46884 7.32482 4.22788 6.05971 4.22788 4.49981C4.22788 2.93981 5.46884 1.67518 7 1.67518C8.53078 1.67518 9.77213 2.93981 9.77213 4.49981C9.77213 6.05971 8.53081 7.32482 7 7.32482Z" fill="#8E8E8E" fill-opacity="0.56"/>
    <path d="M7.00005 3C6.10805 3 5.38464 3.67139 5.38464 4.49982C5.38464 5.32945 6.10805 6 7.00005 6C7.89248 6 8.61541 5.32949 8.61541 4.49982C8.61545 3.67139 7.89251 3 7.00005 3Z" fill="#8E8E8E" fill-opacity="0.56"/>
  </symbol>
  <symbol viewBox="0 0 45 45" id="show-password-no-active">
    <path d="M0 0C0 0 3.14763 3.99927 6.99981 3.99927C10.852 3.99927 14 0 14 0C14 0 10.852 4.49946 6.99981 4.49946C3.14763 4.49946 0 0 0 0Z" fill="#8E8E8E" fill-opacity="0.56"/>
  </symbol>
  <symbol viewBox="0 0 45 45" id="back">
    <path d="M1.23223 17.2322C0.255922 18.2085 0.255922 19.7915 1.23223 20.7678L17.1421 36.6777C18.1184 37.654 19.7014 37.654 20.6777 36.6777C21.654 35.7014 21.654 34.1184 20.6777 33.1421L6.53553 19L20.6777 4.85786C21.654 3.88155 21.654 2.29864 20.6777 1.32233C19.7014 0.34602 18.1184 0.34602 17.1421 1.32233L1.23223 17.2322ZM3 21.5H61V16.5H3V21.5Z" fill="white"/>
  </symbol>
  <symbol viewBox="0 0 45 45" id="blocking">
    <circle cx="21.5" cy="21.5" r="19.5" stroke="#BF0101" stroke-width="4"/>
    <line x1="10.1947" y1="4.81313" x2="34.2747" y2="36.6331" stroke="#BF0101" stroke-width="4"/>
  </symbol>
  <symbol viewBox="0 0 45 45" id="close">
    <line x1="23.6453" y1="0.353553" x2="1.6453" y2="22.3536" stroke="#BF0101"/>
    <line x1="23.2393" y1="22.0634" x2="0.656009" y2="0.66258" stroke="#BF0101"/>
  </symbol>
  <symbol viewBox="0 0 45 45" id="clear">
    <path d="M28 40H11.8C8.5 40 5.9 37.3 5.9 34.1V16C5.9 15.4 6.3 15 6.9 15C7.5 15 7.9 15.4 7.9 16V34.1C7.9 36.3 9.7 38 11.8 38H28C30.2 38 31.9 36.2 31.9 34.1V16C31.9 15.4 32.3 15 32.9 15C33.5 15 33.9 15.4 33.9 16V34.1C33.9 37.3 31.2 40 28 40Z" />
    <path d="M33.3 4.9H25.7C25.2 2.1 22.8 0 19.9 0C17 0 14.6 2.1 14.1 4.9H6.5C4.2 4.9 2.4 6.7 2.4 9C2.4 11.3 4.2 13 6.5 13H33.4C35.7 13 37.5 11.2 37.5 8.9C37.5 6.6 35.6 4.9 33.3 4.9ZM19.9 2C21.7 2 23.2 3.2 23.6 4.9H16.1C16.6 3.2 18.1 2 19.9 2ZM33.3 11H6.5C5.4 11 4.4 10.1 4.4 8.9C4.4 7.8 5.3 6.8 6.5 6.8H33.4C34.5 6.8 35.5 7.7 35.5 8.9C35.4 10.1 34.5 11 33.3 11Z" />
    <path d="M12.9 35.1C12.3 35.1 11.9 34.7 11.9 34.1V17.4C11.9 16.8 12.3 16.4 12.9 16.4C13.5 16.4 13.9 16.8 13.9 17.4V34.1C13.9 34.6 13.4 35.1 12.9 35.1Z"/>
    <path d="M26.9 35.1C26.3 35.1 25.9 34.7 25.9 34.1V17.4C25.9 16.8 26.3 16.4 26.9 16.4C27.5 16.4 27.9 16.8 27.9 17.4V34.1C27.9 34.6 27.4 35.1 26.9 35.1Z" />
    <path d="M19.9 35.1C19.3 35.1 18.9 34.7 18.9 34.1V17.4C18.9 16.8 19.3 16.4 19.9 16.4C20.5 16.4 20.9 16.8 20.9 17.4V34.1C20.9 34.6 20.4 35.1 19.9 35.1Z" />
  </symbol>
  <symbol viewBox="0 0 45 45" id="editor">
    <path d="M11.2838 34.5228L33.295 12.5116L27.4884 6.70532L5.47687 28.7166C5.35875 28.8109 5.26719 28.9403 5.22594 29.0978L3.51469 35.5988C3.51156 35.6113 3.51156 35.6244 3.50875 35.6366C3.50312 35.6622 3.49969 35.6872 3.49656 35.7138C3.49437 35.7372 3.49375 35.7597 3.49375 35.7831C3.49344 35.8072 3.49406 35.8291 3.49656 35.8534C3.49969 35.8797 3.50312 35.9053 3.50875 35.9303C3.51125 35.9428 3.51125 35.9559 3.51469 35.9681C3.51687 35.9772 3.52125 35.9853 3.52437 35.9941C3.53156 36.0184 3.54094 36.0422 3.55125 36.0659C3.56031 36.0869 3.56906 36.1078 3.57937 36.1272C3.59094 36.1478 3.60344 36.1669 3.61719 36.1863C3.63 36.2059 3.64312 36.2256 3.65781 36.2438C3.6725 36.2622 3.68906 36.2778 3.70531 36.2944C3.72187 36.3113 3.73812 36.3272 3.75625 36.3419C3.77375 36.3569 3.79344 36.37 3.81312 36.3828C3.83281 36.3963 3.85187 36.4091 3.87312 36.4203C3.8925 36.4306 3.91312 36.4397 3.93406 36.4484C3.95781 36.4588 3.98125 36.4681 4.00594 36.4756C4.01469 36.4784 4.02281 36.4828 4.03187 36.4853C4.04437 36.4884 4.05719 36.4884 4.06969 36.4916C4.095 36.4969 4.12031 36.5003 4.14656 36.5031C4.17062 36.5059 4.19281 36.5066 4.21656 36.5063C4.24 36.5063 4.2625 36.5059 4.28625 36.5038C4.3125 36.5003 4.33812 36.4969 4.36344 36.4916C4.37594 36.4884 4.38906 36.4884 4.40125 36.4853L10.9025 34.7744C11.0603 34.7331 11.19 34.6416 11.2838 34.5228ZM6.14094 33.8591C5.97375 33.6919 5.745 33.6259 5.52719 33.6563L6.52187 29.8769L10.1238 33.4784L6.34375 34.4728C6.37437 34.255 6.30875 34.0263 6.14094 33.8591Z" fill="#8E8E8E" fill-opacity="0.56"/>
    <path d="M34.2819 11.5247L28.4756 5.71814L30.6997 3.49408C30.6997 3.49408 34.6547 4.9047 36.5059 9.30095L34.2819 11.5247Z" fill="#8E8E8E" fill-opacity="0.56"/>
  </symbol>
  <symbol viewBox="0 0 45 45" id="message">
    <path  d="M39.1005 5.2441C39.3681 5.48199 39.4485 5.83957 39.3043 6.15064L26.1793 34.484C26.0252 34.8168 25.6481 35.024 25.2443 34.9978C24.8406 34.9717 24.5012 34.718 24.4029 34.3689L20.7894 21.5205L6.33514 18.3085C5.94232 18.2212 5.65695 17.9195 5.62749 17.5607C5.59804 17.2017 5.83117 16.8665 6.20555 16.7295L38.0805 5.06279C38.4306 4.9347 38.8328 5.00622 39.1005 5.2441ZM9.55485 17.306L21.7899 20.0249C22.1257 20.0995 22.3881 20.3327 22.4721 20.6312L25.5308 31.5069L36.714 7.36542L9.55485 17.306Z" />
    <path  clip-rule="evenodd" d="M39.1005 5.24409C39.4665 5.56952 39.4665 6.09715 39.1005 6.42259L22.2255 21.4227C21.8593 21.748 21.2657 21.748 20.8995 21.4227C20.5335 21.0972 20.5335 20.5695 20.8995 20.244L37.7745 5.24409C38.1407 4.91864 38.7343 4.91864 39.1005 5.24409Z" />
  </symbol>
  <symbol viewBox="0 0 45 45" id="search">
    <g clip-path="url(#clip0_10_75)">
      <path d="M5.54422 2.48023C7.14363 0.88082 9.27008 0 11.532 0C13.7939 0 15.9204 0.88082 17.5198 2.48023C19.1192 4.07961 20 6.20609 20 8.46797C20 10.7299 19.1192 12.8564 17.5198 14.4557C15.9204 16.0551 13.7939 16.936 11.532 16.936C9.27012 16.936 7.14363 16.0551 5.54422 14.4557C3.94484 12.8564 3.06398 10.7299 3.06398 8.46797C3.06402 6.20609 3.94484 4.07961 5.54422 2.48023ZM11.532 15.3202C15.3104 15.3202 18.3842 12.2463 18.3842 8.46797C18.3842 4.68965 15.3103 1.61578 11.532 1.61578C7.75367 1.61578 4.67984 4.68965 4.67984 8.46797C4.67984 12.2463 7.75371 15.3202 11.532 15.3202Z" fill="#0B0B0B"/>
      <path d="M0.236602 18.6208L5.54762 13.3099C5.86313 12.9944 6.37465 12.9944 6.69016 13.3099C7.00562 13.6254 7.00562 14.1369 6.69016 14.4524L1.37918 19.7634C1.22145 19.9212 1.01465 20 0.807891 20C0.601133 20 0.394336 19.9212 0.236602 19.7634C-0.078867 19.4479 -0.078867 18.9364 0.236602 18.6208Z" fill="#0B0B0B"/>
    </g>
    <defs>
      <clipPath id="clip0_10_75">
        <rect width="20" height="20" fill="white" transform="matrix(-1 0 0 1 20 0)"/>
      </clipPath>
    </defs>
  </symbol>
  <symbol viewBox="0 0 45 45" id="sign_up">
    <g filter="url(#filter0_d_5_31)">
      <path d="M4 16.5H38M38 16.5L25.5 4M38 16.5L25.5 29" stroke="#0B87FA" stroke-width="3"/>
    </g>
    <defs>
      <filter id="filter0_d_5_31" x="0" y="0.939339" width="44.1213" height="35.1213" filterUnits="userSpaceOnUse" color-interpolation-filters="sRGB">
        <feFlood flood-opacity="0" result="BackgroundImageFix"/>
        <feColorMatrix in="SourceAlpha" type="matrix" values="0 0 0 0 0 0 0 0 0 0 0 0 0 0 0 0 0 0 127 0" result="hardAlpha"/>
        <feOffset dy="2"/>
        <feGaussianBlur stdDeviation="2"/>
        <feColorMatrix type="matrix" values="0 0 0 0 0 0 0 0 0 0 0 0 0 0 0 0 0 0 0.43 0"/>
        <feBlend mode="normal" in2="BackgroundImageFix" result="effect1_dropShadow_5_31"/>
        <feBlend mode="normal" in="SourceGraphic" in2="effect1_dropShadow_5_31" result="shape"/>
      </filter>
    </defs>
  </symbol>
  <symbol viewBox="0 0 45 45" id="unblocking">
    <circle cx="21.5" cy="21.5" r="19.5" stroke="#1BBF00" stroke-width="4"/>
  </symbol>
</svg>
